# xmcd
#
# Track frame offsets: 
#        150
#        20619
#        39110
#        60050
#        80545
#        99659
#        112541
#        130068
#        154921
#        174709
#        187824
#        201533
#        217527
#        231516
#
# Disc length: 3354 seconds
#
# Revision: 0
# Processed by: cddbd v1.5.2PL0 Copyright (c) Steve Scherf et al.
# Submitted via: ExactAudioCopy v1.0b1
#
DISCID=a80d180e
DTITLE=Clint Black - When I Said I Do
DYEAR=2013
DGENRE=Country
TTITLE0=When I Said I Do
TTITLE1=Our Kind Of Love
TTITLE2=Something That We Do
TTITLE3=You Made Me Feel
TTITLE4=Like The Rain
TTITLE5=One Emotion
TTITLE6=My Imagination
TTITLE7=Easy For Me To Say
TTITLE8=You Know It All
TTITLE9=That Something In My Life
TTITLE10=Half The Man
TTITLE11=Samantha
TTITLE12=Only A Woman
TTITLE13=She Won't Let Go
EXTD=
EXTT0=
EXTT1=
EXTT2=
EXTT3=
EXTT4=
EXTT5=
EXTT6=
EXTT7=
EXTT8=
EXTT9=
EXTT10=
EXTT11=
EXTT12=
EXTT13=
PLAYORDER=
